<svg width="190" height="31" viewBox="0 0 190 31" fill="none" xmlns="http://www.w3.org/2000/svg">
<path d="M9.22267 16.9103C6.86284 16.9103 4.87423 16.1193 3.30984 14.5372C1.74546 12.9552 0.950012 11.004 0.950012 8.65728V8.60454C0.950012 6.2842 1.74546 4.30663 3.33636 2.72458C4.92725 1.11615 6.94239 0.325127 9.38176 0.325127C11.9537 0.325127 14.0749 1.14252 15.7453 2.80368L13.4916 5.3877C12.1128 4.17479 10.7605 3.56834 9.35525 3.56834C8.0295 3.56834 6.91588 4.04295 6.01437 5.01855C5.11286 5.99415 4.68862 7.18069 4.68862 8.55181V8.60454C4.68862 10.002 5.13937 11.2149 6.01437 12.1905C6.88936 13.1661 8.00299 13.6671 9.38176 13.6671C10.2302 13.6671 10.9992 13.5089 11.6355 13.2189C12.2719 12.9025 12.9348 12.4278 13.6242 11.795L15.8779 14.0626C14.9764 15.0382 14.0219 15.7501 13.0143 16.2248C11.9537 16.673 10.7075 16.9103 9.22267 16.9103Z" fill="#4E2D2D"/>
<path d="M18.6884 16.6217V0.590187H22.2414V5.62639H25.105C27.0936 5.62639 28.6315 6.10101 29.7716 7.02387C30.9118 7.94674 31.4686 9.29148 31.4686 11.0581V11.0845C31.4686 12.8247 30.9118 14.1695 29.7716 15.1714C28.6315 16.1734 27.0406 16.6744 24.9724 16.6744H18.6884V16.6217ZM22.2414 13.4576H25.0255C25.927 13.4576 26.6163 13.2466 27.1201 12.8511C27.6239 12.4556 27.8625 11.8755 27.8625 11.1108V11.0845C27.8625 10.3462 27.6239 9.79247 27.1466 9.37059C26.6694 8.97507 25.98 8.76413 25.052 8.76413H22.2414V13.4576ZM33.8019 16.6217V0.590187H37.3549V16.648H33.8019V16.6217Z" fill="#4E2D2D"/>
<path d="M41.2261 16.6217V0.590187H47.8283C49.7374 0.590187 51.2487 1.09117 52.3358 2.11951C53.4495 3.14784 54.0063 4.46622 54.0063 6.15374V6.20648C54.0063 7.99947 53.3964 9.39695 52.1502 10.3726C50.9305 11.3482 49.3662 11.8491 47.4836 11.8491H44.7791V16.6744H41.2261V16.6217ZM44.7791 8.68503H47.5897C48.4381 8.68503 49.1275 8.44772 49.6313 7.99947C50.1351 7.55122 50.4003 6.97114 50.4003 6.25921V6.20648C50.4003 5.41545 50.1351 4.83536 49.6313 4.41348C49.1275 3.9916 48.4116 3.78066 47.5101 3.78066H44.7791V8.68503Z" fill="#4E2D2D"/>
<path d="M70.6048 14.4858C68.9609 16.0942 66.9193 16.9116 64.4534 16.9116C61.9875 16.9116 59.9458 16.1205 58.3284 14.5121C56.711 12.9037 55.889 10.9525 55.889 8.65852V8.60578C55.889 6.28544 56.711 4.33424 58.3549 2.72582C59.9989 1.1174 62.0405 0.300003 64.5064 0.300003C66.9723 0.300003 69.0139 1.09103 70.6314 2.69945C72.2488 4.30787 73.0707 6.25907 73.0707 8.55305V8.60578C73.0707 10.9261 72.2488 12.8773 70.6048 14.4858ZM61.0064 12.1918C61.9345 13.1674 63.1011 13.6684 64.5064 13.6684C65.9117 13.6684 67.0784 13.1937 67.9799 12.2181C68.8814 11.2425 69.3321 10.0824 69.3321 8.65852V8.60578C69.3321 7.2083 68.8814 5.9954 67.9533 5.0198C67.0253 4.0442 65.8587 3.54321 64.4534 3.54321C63.0481 3.54321 61.8814 4.01783 60.9799 4.99343C60.0784 5.96903 59.6276 7.1292 59.6276 8.55305V8.60578C59.6276 10.0033 60.0784 11.2162 61.0064 12.1918Z" fill="#4E2D2D"/>
<path d="M76.226 16.6217V0.590187H83.7297C85.5858 0.590187 86.991 1.0648 87.9456 2.01404C88.688 2.75233 89.0592 3.64882 89.0592 4.72989V4.78263C89.0592 6.36468 88.3433 7.49849 86.938 8.23678C87.9456 8.60593 88.688 9.10691 89.1918 9.73973C89.6956 10.3462 89.9607 11.1636 89.9607 12.1919V12.2446C89.9607 13.6685 89.4304 14.7759 88.3433 15.5142C87.2562 16.2525 85.7979 16.648 83.9153 16.648H76.226V16.6217ZM85.5062 5.36272V5.30998C85.5062 4.20254 84.7373 3.64882 83.1729 3.64882H79.6729V7.07661H82.9343C84.6577 7.07661 85.5062 6.49652 85.5062 5.36272ZM86.4077 11.7964V11.7437C86.4077 10.5835 85.5327 10.0034 83.7827 10.0034H79.6729V13.5367H83.8888C85.5858 13.5367 86.4077 12.9566 86.4077 11.7964Z" fill="#4E2D2D"/>
<path d="M91.4985 16.6217L98.4189 0.458427H101.68L108.601 16.6217H104.889L103.404 13.0094H96.5894L95.1045 16.6217H91.4985ZM97.8621 9.92438H102.158L99.9833 4.7036L97.8621 9.92438Z" fill="#4E2D2D"/>
<path d="M111.093 16.6217V0.590187H117.695C119.604 0.590187 121.115 1.09117 122.202 2.11951C123.316 3.14784 123.873 4.46622 123.873 6.15374V6.20648C123.873 7.99947 123.263 9.39695 122.017 10.3726C120.797 11.3482 119.233 11.8491 117.35 11.8491H114.646V16.6744H111.093V16.6217ZM114.619 8.68503H117.43C118.278 8.68503 118.968 8.44772 119.471 7.99947C119.975 7.55122 120.24 6.97114 120.24 6.25921V6.20648C120.24 5.41545 119.975 4.83536 119.471 4.41348C118.968 3.9916 118.252 3.78066 117.35 3.78066H114.619V8.68503Z" fill="#4E2D2D"/>
<path d="M126.472 16.6217V0.590187H138.642V3.72793H129.998V6.97114H137.608V10.1089H129.998V13.4839H138.748V16.6217H126.472Z" fill="#4E2D2D"/>
<path d="M141.93 16.6217V0.590187H145.483V6.94477H152.033V0.590187H155.586V16.648H152.033V10.188H145.483V16.6217H141.93Z" fill="#4E2D2D"/>
<path d="M173.801 16.6217H170.248V6.15374L162.585 16.6217H159.456V0.590187H163.009V10.7417L170.407 0.590187H173.801V16.6217Z" fill="#4E2D2D"/>
<path d="M177.672 16.6217V0.590187H189.842V3.72793H181.198V6.97114H188.808V10.1089H181.198V13.4839H189.948V16.6217H177.672Z" fill="#4E2D2D"/>
<path d="M1.96515 24.8058C1.96515 24.3063 2.03175 23.8431 2.16496 23.4162C2.29817 22.9893 2.49798 22.62 2.7644 22.3081C3.03081 21.9933 3.36534 21.7466 3.76799 21.5679C4.17064 21.3893 4.6399 21.3 5.17576 21.3C5.66923 21.3 6.11427 21.3893 6.51086 21.5679C6.90746 21.7466 7.2435 21.9933 7.519 22.3081C7.79753 22.62 8.01096 22.9893 8.15931 23.4162C8.30765 23.8431 8.38182 24.3063 8.38182 24.8058C8.38182 25.3023 8.30765 25.7655 8.15931 26.1954C8.01096 26.6223 7.79753 26.9931 7.519 27.308C7.2435 27.6198 6.90746 27.865 6.51086 28.0436C6.11427 28.2223 5.66923 28.3116 5.17576 28.3116C4.6399 28.3116 4.17064 28.2223 3.76799 28.0436C3.36534 27.865 3.03081 27.6198 2.7644 27.308C2.49798 26.9931 2.29817 26.6223 2.16496 26.1954C2.03175 25.7655 1.96515 25.3023 1.96515 24.8058ZM5.17576 27.1036C5.46034 27.1036 5.71464 27.0461 5.93867 26.9311C6.16271 26.816 6.35192 26.6571 6.50632 26.4542C6.66375 26.2484 6.78333 26.0062 6.86507 25.7276C6.94681 25.4461 6.98769 25.1388 6.98769 24.8058C6.98769 24.4728 6.94681 24.167 6.86507 23.8885C6.78333 23.6069 6.66375 23.3647 6.50632 23.1619C6.35192 22.956 6.16271 22.7956 5.93867 22.6805C5.71464 22.5655 5.46034 22.508 5.17576 22.508C4.89118 22.508 4.63687 22.5655 4.41284 22.6805C4.18881 22.7956 3.99808 22.956 3.84065 23.1619C3.68625 23.3647 3.56667 23.6069 3.4819 23.8885C3.40016 24.167 3.35929 24.4728 3.35929 24.8058C3.35929 25.1388 3.40016 25.4461 3.4819 25.7276C3.56667 26.0062 3.68625 26.2484 3.84065 26.4542C3.99808 26.6571 4.18881 26.816 4.41284 26.9311C4.63687 27.0461 4.89118 27.1036 5.17576 27.1036Z" fill="#4E2D2D"/>
<path d="M13.7313 21.3908C13.7344 21.6451 13.6905 21.854 13.5996 22.0175C13.5088 22.178 13.3877 22.3081 13.2363 22.408C13.088 22.5049 12.9154 22.5761 12.7186 22.6215C12.5249 22.6639 12.3251 22.6926 12.1192 22.7078C11.9769 22.7199 11.8301 22.7396 11.6787 22.7668C11.5273 22.791 11.379 22.8304 11.2337 22.8849C11.0884 22.9363 10.9506 23.006 10.8204 23.0938C10.6903 23.1785 10.5737 23.2845 10.4708 23.4116C10.3678 23.5388 10.2831 23.6902 10.2165 23.8658C10.1499 24.0414 10.109 24.2472 10.0938 24.4834C10.1423 24.3259 10.2195 24.1776 10.3254 24.0383C10.4314 23.896 10.5631 23.7734 10.7205 23.6705C10.881 23.5645 11.0657 23.4813 11.2746 23.4207C11.4834 23.3572 11.715 23.3254 11.9694 23.3254C12.3084 23.3254 12.6142 23.3829 12.8867 23.4979C13.1591 23.6099 13.3907 23.7689 13.5815 23.9748C13.7722 24.1806 13.9175 24.4289 14.0174 24.7195C14.1204 25.0101 14.1718 25.3326 14.1718 25.6868C14.1718 26.0803 14.1128 26.4376 13.9947 26.7585C13.8797 27.0794 13.7132 27.3549 13.4952 27.585C13.2802 27.812 13.0168 27.9891 12.705 28.1163C12.3932 28.2404 12.042 28.3025 11.6515 28.3025C11.0823 28.3025 10.6115 28.1859 10.2392 27.9528C9.86679 27.7197 9.58069 27.3398 9.38088 26.813C9.31428 26.6344 9.26281 26.4452 9.22648 26.2453C9.19015 26.0455 9.16291 25.8578 9.14474 25.6822C9.1296 25.5066 9.12052 25.3538 9.1175 25.2236C9.11447 25.0934 9.11295 25.0071 9.11295 24.9647C9.11295 24.4924 9.16745 24.061 9.27644 23.6705C9.38542 23.2769 9.55799 22.9348 9.79413 22.6442C10.0333 22.3536 10.3391 22.1189 10.7114 21.9403C11.0869 21.7617 11.541 21.6482 12.0738 21.5997C12.2433 21.5846 12.3629 21.5573 12.4326 21.518C12.5052 21.4756 12.5506 21.4332 12.5688 21.3908H13.7313ZM10.4617 25.6686C10.4617 25.8563 10.4814 26.0425 10.5207 26.2272C10.5631 26.4088 10.6312 26.5723 10.7251 26.7176C10.8189 26.8599 10.9415 26.975 11.0929 27.0628C11.2443 27.1505 11.4305 27.1944 11.6515 27.1944C11.8846 27.1944 12.0768 27.1521 12.2282 27.0673C12.3826 26.9795 12.5052 26.866 12.596 26.7267C12.6869 26.5844 12.7504 26.4224 12.7868 26.2408C12.8231 26.0561 12.8413 25.8654 12.8413 25.6686C12.8413 25.4749 12.8201 25.2932 12.7777 25.1237C12.7353 24.9541 12.6687 24.8073 12.5779 24.6832C12.487 24.556 12.369 24.4576 12.2237 24.388C12.0783 24.3153 11.9027 24.279 11.6969 24.279C11.4759 24.279 11.2867 24.3169 11.1292 24.3925C10.9748 24.4652 10.8477 24.5651 10.7478 24.6923C10.6479 24.8194 10.5752 24.9678 10.5298 25.1373C10.4844 25.3038 10.4617 25.4809 10.4617 25.6686Z" fill="#4E2D2D"/>
<path d="M14.7985 25.6686C14.7985 25.2872 14.856 24.936 14.9711 24.6151C15.0891 24.2941 15.2572 24.0187 15.4751 23.7886C15.6961 23.5555 15.9626 23.3738 16.2744 23.2436C16.5862 23.1134 16.9374 23.0484 17.3279 23.0484C17.7245 23.0484 18.0787 23.1134 18.3906 23.2436C18.7054 23.3738 18.9703 23.5555 19.1853 23.7886C19.4032 24.0187 19.5698 24.2941 19.6848 24.6151C19.7998 24.936 19.8574 25.2872 19.8574 25.6686C19.8574 26.0501 19.7998 26.4013 19.6848 26.7222C19.5698 27.0431 19.4032 27.3201 19.1853 27.5532C18.9703 27.7863 18.7054 27.968 18.3906 28.0981C18.0787 28.2283 17.7245 28.2934 17.3279 28.2934C16.9374 28.2934 16.5862 28.2283 16.2744 28.0981C15.9626 27.968 15.6961 27.7863 15.4751 27.5532C15.2572 27.3201 15.0891 27.0431 14.9711 26.7222C14.856 26.4013 14.7985 26.0501 14.7985 25.6686ZM16.1381 25.6686C16.1381 25.8563 16.1578 26.0425 16.1972 26.2272C16.2396 26.4088 16.3077 26.5723 16.4015 26.7176C16.4954 26.8599 16.618 26.975 16.7694 27.0628C16.9207 27.1505 17.1069 27.1944 17.3279 27.1944C17.558 27.1944 17.7487 27.1521 17.9001 27.0673C18.0545 26.9795 18.1771 26.866 18.268 26.7267C18.3588 26.5844 18.4224 26.4224 18.4587 26.2408C18.498 26.0561 18.5177 25.8654 18.5177 25.6686C18.5177 25.4749 18.498 25.2856 18.4587 25.101C18.4224 24.9163 18.3588 24.7543 18.268 24.6151C18.1771 24.4728 18.0545 24.3592 17.9001 24.2745C17.7487 24.1867 17.558 24.1428 17.3279 24.1428C17.1069 24.1428 16.9207 24.1867 16.7694 24.2745C16.618 24.3623 16.4954 24.4788 16.4015 24.6241C16.3077 24.7664 16.2396 24.9299 16.1972 25.1146C16.1578 25.2962 16.1381 25.4809 16.1381 25.6686Z" fill="#4E2D2D"/>
<path d="M20.752 23.1937H21.9781V23.9021H21.9963C22.0841 23.7537 22.1764 23.6266 22.2733 23.5206C22.3701 23.4116 22.4776 23.3223 22.5957 23.2527C22.7138 23.1831 22.8439 23.1316 22.9862 23.0983C23.1316 23.065 23.295 23.0484 23.4767 23.0484C23.6281 23.0484 23.784 23.0665 23.9444 23.1028C24.1049 23.1392 24.2608 23.1982 24.4122 23.28C24.5666 23.3587 24.7119 23.4631 24.8481 23.5933C24.9844 23.7204 25.1039 23.8779 25.2069 24.0656C25.3098 24.2533 25.3915 24.4728 25.4521 24.724C25.5126 24.9723 25.5429 25.2569 25.5429 25.5778C25.5429 25.9774 25.499 26.3437 25.4112 26.6768C25.3265 27.0098 25.1963 27.2959 25.0207 27.535C24.8481 27.7742 24.6286 27.9604 24.3622 28.0936C24.0988 28.2268 23.7885 28.2934 23.4313 28.2934C23.3071 28.2934 23.1815 28.2813 23.0544 28.2571C22.9272 28.2329 22.8031 28.192 22.682 28.1345C22.5609 28.0769 22.4458 27.9997 22.3368 27.9029C22.2309 27.803 22.137 27.6788 22.0553 27.5305H22.0371V30.0599H20.752V23.1937ZM23.0952 24.2018C22.8894 24.2018 22.7153 24.2457 22.573 24.3335C22.4337 24.4213 22.3202 24.5348 22.2324 24.6741C22.1476 24.8134 22.0856 24.9708 22.0462 25.1464C22.0069 25.322 21.9872 25.496 21.9872 25.6686C21.9872 25.7625 21.9917 25.8654 22.0008 25.9774C22.0129 26.0864 22.0341 26.1984 22.0644 26.3135C22.0947 26.4255 22.1355 26.5345 22.187 26.6404C22.2415 26.7464 22.3096 26.8402 22.3913 26.922C22.4731 27.0037 22.5715 27.0703 22.6865 27.1218C22.8016 27.1702 22.9378 27.1944 23.0952 27.1944C23.2526 27.1944 23.3889 27.1702 23.5039 27.1218C23.619 27.0703 23.7174 27.0037 23.7991 26.922C23.8808 26.8402 23.9474 26.7464 23.9989 26.6404C24.0534 26.5345 24.0958 26.4255 24.1261 26.3135C24.1563 26.1984 24.176 26.0864 24.1851 25.9774C24.1972 25.8654 24.2033 25.7625 24.2033 25.6686C24.2033 25.496 24.1836 25.322 24.1442 25.1464C24.1049 24.9708 24.0413 24.8134 23.9535 24.6741C23.8687 24.5348 23.7552 24.4213 23.6129 24.3335C23.4706 24.2457 23.2981 24.2018 23.0952 24.2018Z" fill="#4E2D2D"/>
<path d="M29.1986 28.0618C29.1017 28.3464 29.0139 28.5931 28.9352 28.802C28.8565 29.0139 28.7777 29.1956 28.699 29.347C28.6233 29.5014 28.5416 29.627 28.4538 29.7239C28.369 29.8238 28.2691 29.9025 28.1541 29.96C28.039 30.0175 27.9043 30.0569 27.7499 30.0781C27.5955 30.1023 27.4124 30.1144 27.2004 30.1144C27.1157 30.1144 27.0354 30.1114 26.9598 30.1053C26.8871 30.1023 26.7993 30.0963 26.6964 30.0872V29.0472C26.7478 29.0533 26.8114 29.0594 26.8871 29.0654C26.9628 29.0715 27.0264 29.0745 27.0778 29.0745C27.2141 29.0745 27.3291 29.0488 27.423 28.9973C27.5168 28.9458 27.591 28.8838 27.6455 28.8111C27.703 28.7415 27.7439 28.6688 27.7681 28.5931C27.7923 28.5174 27.8044 28.4539 27.8044 28.4024L25.9925 23.1937H27.432L28.4947 26.8402H28.5128L29.5255 23.1937H30.9015L29.1986 28.0618Z" fill="#4E2D2D"/>
<path d="M31.2239 27.1036H31.7371C31.8582 26.8766 31.9581 26.6389 32.0368 26.3907C32.1185 26.1394 32.1836 25.8866 32.2321 25.6323C32.2805 25.378 32.3153 25.1297 32.3365 24.8875C32.3577 24.6423 32.3728 24.4122 32.3819 24.1973C32.391 23.9823 32.394 23.7886 32.391 23.616C32.391 23.4434 32.3925 23.3027 32.3955 23.1937H36.2646V27.1036H36.8868V29.3333H35.6788V28.1435H32.4319V29.3333H31.2239V27.1036ZM34.984 27.1036V24.2381H33.5127C33.5127 24.329 33.5112 24.441 33.5081 24.5742C33.5081 24.7074 33.5021 24.8557 33.49 25.0192C33.4809 25.1797 33.4657 25.3507 33.4446 25.5324C33.4264 25.714 33.3976 25.8957 33.3583 26.0773C33.3219 26.259 33.2765 26.4376 33.222 26.6132C33.1706 26.7888 33.1055 26.9522 33.0268 27.1036H34.984Z" fill="#4E2D2D"/>
<path d="M37.3046 25.6686C37.3046 25.2872 37.3621 24.936 37.4771 24.6151C37.5952 24.2941 37.7632 24.0187 37.9812 23.7886C38.2022 23.5555 38.4686 23.3738 38.7804 23.2436C39.0923 23.1134 39.4434 23.0484 39.834 23.0484C40.2306 23.0484 40.5848 23.1134 40.8966 23.2436C41.2115 23.3738 41.4764 23.5555 41.6913 23.7886C41.9093 24.0187 42.0758 24.2941 42.1908 24.6151C42.3059 24.936 42.3634 25.2872 42.3634 25.6686C42.3634 26.0501 42.3059 26.4013 42.1908 26.7222C42.0758 27.0431 41.9093 27.3201 41.6913 27.5532C41.4764 27.7863 41.2115 27.968 40.8966 28.0981C40.5848 28.2283 40.2306 28.2934 39.834 28.2934C39.4434 28.2934 39.0923 28.2283 38.7804 28.0981C38.4686 27.968 38.2022 27.7863 37.9812 27.5532C37.7632 27.3201 37.5952 27.0431 37.4771 26.7222C37.3621 26.4013 37.3046 26.0501 37.3046 25.6686ZM38.6442 25.6686C38.6442 25.8563 38.6639 26.0425 38.7032 26.2272C38.7456 26.4088 38.8137 26.5723 38.9076 26.7176C39.0014 26.8599 39.124 26.975 39.2754 27.0628C39.4268 27.1505 39.613 27.1944 39.834 27.1944C40.0641 27.1944 40.2548 27.1521 40.4062 27.0673C40.5606 26.9795 40.6832 26.866 40.774 26.7267C40.8648 26.5844 40.9284 26.4224 40.9647 26.2408C41.0041 26.0561 41.0238 25.8654 41.0238 25.6686C41.0238 25.4749 41.0041 25.2856 40.9647 25.101C40.9284 24.9163 40.8648 24.7543 40.774 24.6151C40.6832 24.4728 40.5606 24.3592 40.4062 24.2745C40.2548 24.1867 40.0641 24.1428 39.834 24.1428C39.613 24.1428 39.4268 24.1867 39.2754 24.2745C39.124 24.3623 39.0014 24.4788 38.9076 24.6241C38.8137 24.7664 38.7456 24.9299 38.7032 25.1146C38.6639 25.2962 38.6442 25.4809 38.6442 25.6686Z" fill="#4E2D2D"/>
<path d="M44.6158 25.1373H45.6058C45.7511 25.1373 45.8722 25.1267 45.9691 25.1055C46.066 25.0813 46.1417 25.048 46.1962 25.0056C46.2537 24.9602 46.293 24.9057 46.3142 24.8421C46.3385 24.7755 46.3506 24.6983 46.3506 24.6105C46.3506 24.5379 46.3385 24.4713 46.3142 24.4107C46.293 24.3471 46.2552 24.2941 46.2007 24.2518C46.1462 24.2064 46.0736 24.1715 45.9827 24.1473C45.8919 24.1201 45.7784 24.1064 45.6421 24.1064H44.6158V25.1373ZM43.3307 23.1937H45.8919C46.119 23.1937 46.3369 23.2134 46.5458 23.2527C46.7578 23.2921 46.9439 23.3617 47.1044 23.4616C47.2649 23.5585 47.392 23.6917 47.4859 23.8612C47.5827 24.0277 47.6312 24.2397 47.6312 24.497C47.6312 24.6453 47.6145 24.774 47.5812 24.883C47.5509 24.992 47.5086 25.0858 47.4541 25.1645C47.3996 25.2402 47.336 25.3053 47.2633 25.3598C47.1937 25.4113 47.121 25.4552 47.0454 25.4915C47.2936 25.5793 47.4828 25.7201 47.613 25.9138C47.7432 26.1046 47.8083 26.3331 47.8083 26.5996C47.8083 26.8327 47.7674 27.0446 47.6857 27.2353C47.607 27.423 47.4934 27.585 47.3451 27.7212C47.1998 27.8544 47.0211 27.9589 46.8092 28.0346C46.6003 28.1072 46.3657 28.1435 46.1053 28.1435H43.3307V23.1937ZM44.6158 27.2308H45.6058C45.7905 27.2308 45.9388 27.2111 46.0508 27.1717C46.1659 27.1324 46.2537 27.0824 46.3142 27.0219C46.3778 26.9613 46.4187 26.8947 46.4368 26.8221C46.458 26.7494 46.4686 26.6813 46.4686 26.6177C46.4686 26.4966 46.452 26.3967 46.4187 26.318C46.3884 26.2363 46.3385 26.1712 46.2688 26.1227C46.2022 26.0743 46.1129 26.041 46.0009 26.0228C45.8919 26.0047 45.7602 25.9956 45.6058 25.9956H44.6158V27.2308Z" fill="#4E2D2D"/>
<path d="M52.8444 27.1672C52.8444 27.3155 52.852 27.4382 52.8671 27.535C52.8853 27.6289 52.908 27.7046 52.9353 27.7621C52.9625 27.8166 52.9928 27.8575 53.0261 27.8847C53.0624 27.9089 53.1003 27.9271 53.1396 27.9392V28.1435H51.7182C51.694 28.086 51.6668 28.0103 51.6365 27.9165C51.6092 27.8196 51.5956 27.7031 51.5956 27.5668C51.4957 27.6698 51.3973 27.7651 51.3004 27.8529C51.2066 27.9407 51.1006 28.0179 50.9826 28.0845C50.8645 28.1481 50.7283 28.198 50.5739 28.2344C50.4195 28.2737 50.2333 28.2934 50.0153 28.2934C49.7943 28.2934 49.5899 28.2601 49.4022 28.1935C49.2176 28.1299 49.0571 28.0346 48.9209 27.9074C48.7846 27.7803 48.6787 27.6213 48.603 27.4306C48.5273 27.2399 48.4895 27.0189 48.4895 26.7676C48.4895 26.5647 48.5212 26.377 48.5848 26.2045C48.6484 26.0289 48.7377 25.876 48.8527 25.7458C48.9708 25.6126 49.1131 25.5036 49.2796 25.4188C49.4492 25.331 49.6384 25.272 49.8473 25.2417L51.1052 25.0556C51.1506 25.0495 51.199 25.0404 51.2505 25.0283C51.305 25.0162 51.3549 24.9965 51.4003 24.9693C51.4458 24.939 51.4836 24.8996 51.5139 24.8512C51.5442 24.7997 51.5593 24.7316 51.5593 24.6468C51.5593 24.5651 51.5457 24.4909 51.5184 24.4243C51.4942 24.3547 51.4518 24.2957 51.3913 24.2472C51.3307 24.1958 51.249 24.1564 51.146 24.1292C51.0461 24.1019 50.9205 24.0883 50.7691 24.0883C50.5966 24.0883 50.4573 24.1064 50.3513 24.1428C50.2484 24.1761 50.1667 24.2245 50.1061 24.2881C50.0456 24.3486 50.0017 24.4213 49.9744 24.5061C49.9472 24.5878 49.9275 24.6756 49.9154 24.7695H48.6302C48.6302 24.7089 48.6393 24.6257 48.6575 24.5197C48.6787 24.4107 48.715 24.2926 48.7665 24.1655C48.821 24.0383 48.8951 23.9097 48.989 23.7795C49.0859 23.6493 49.2115 23.5312 49.3659 23.4253C49.5233 23.3163 49.7141 23.227 49.9381 23.1573C50.1621 23.0877 50.43 23.0514 50.7419 23.0484C51.1839 23.0484 51.5411 23.0938 51.8136 23.1846C52.0891 23.2724 52.3025 23.3889 52.4539 23.5343C52.6083 23.6765 52.7112 23.837 52.7627 24.0156C52.8172 24.1912 52.8444 24.3668 52.8444 24.5424V27.1672ZM51.5593 25.7276C51.4806 25.77 51.4019 25.8094 51.3231 25.8457C51.2444 25.879 51.14 25.9078 51.0098 25.932L50.6692 25.9956C50.5209 26.0228 50.3907 26.0546 50.2787 26.0909C50.1667 26.1273 50.0728 26.1757 49.9971 26.2363C49.9245 26.2938 49.8685 26.3649 49.8291 26.4497C49.7928 26.5345 49.7746 26.6404 49.7746 26.7676C49.7746 26.8735 49.7913 26.9659 49.8246 27.0446C49.8579 27.1203 49.9033 27.1838 49.9608 27.2353C50.0213 27.2838 50.091 27.3201 50.1697 27.3443C50.2484 27.3685 50.3332 27.3806 50.424 27.3806C50.4724 27.3806 50.5345 27.3761 50.6102 27.367C50.6859 27.3549 50.7661 27.3337 50.8509 27.3034C50.9356 27.2732 51.0204 27.2323 51.1052 27.1808C51.1899 27.1263 51.2656 27.0567 51.3322 26.9719C51.3988 26.8872 51.4533 26.7842 51.4957 26.6631C51.5381 26.539 51.5593 26.3937 51.5593 26.2272V25.7276Z" fill="#4E2D2D"/>
<path d="M54.0206 23.1937H55.3058V24.9829H57.1949V23.1937H58.4755V28.1435H57.1949V26.0228H55.3058V28.1435H54.0206V23.1937Z" fill="#4E2D2D"/>
<path d="M59.7062 23.1937H60.9913V26.2453H61.0095L62.8123 23.1937H64.161V28.1435H62.8804V25.16H62.8577L61.1094 28.1435H59.7062V23.1937Z" fill="#4E2D2D"/>
<path d="M66.3136 26.0682C66.3136 26.1136 66.3181 26.1742 66.3272 26.2499C66.3363 26.3256 66.3544 26.4073 66.3817 26.4951C66.4089 26.5829 66.4483 26.6722 66.4997 26.763C66.5512 26.8508 66.6193 26.9311 66.7041 27.0037C66.7919 27.0764 66.8979 27.1354 67.022 27.1808C67.1491 27.2262 67.3005 27.2489 67.4761 27.2489C67.5669 27.2489 67.6562 27.2368 67.744 27.2126C67.8348 27.1854 67.9181 27.1475 67.9938 27.0991C68.0695 27.0476 68.1346 26.9871 68.1891 26.9174C68.2466 26.8448 68.2875 26.763 68.3117 26.6722H69.6422C69.6422 26.763 69.6226 26.8675 69.5832 26.9856C69.5438 27.1006 69.4833 27.2187 69.4016 27.3398C69.3228 27.4578 69.2229 27.5744 69.1018 27.6894C68.9807 27.8045 68.8369 27.9074 68.6704 27.9982C68.5039 28.086 68.3147 28.1572 68.1028 28.2117C67.8939 28.2662 67.6608 28.2934 67.4034 28.2934C67.0734 28.2934 66.7631 28.2435 66.4725 28.1435C66.1849 28.0467 65.9321 27.8923 65.7141 27.6803C65.4992 27.4654 65.3296 27.1884 65.2055 26.8493C65.0814 26.5102 65.0193 26.0985 65.0193 25.6141C65.0193 25.2781 65.0632 24.9556 65.151 24.6468C65.2418 24.335 65.3811 24.061 65.5688 23.8249C65.7595 23.5888 66.0017 23.4011 66.2954 23.2618C66.5921 23.1195 66.9478 23.0484 67.3626 23.0484C67.8015 23.0484 68.1709 23.121 68.4706 23.2663C68.7703 23.4086 69.011 23.6115 69.1927 23.8748C69.3773 24.1382 69.509 24.4561 69.5877 24.8285C69.6665 25.2009 69.7058 25.6141 69.7058 26.0682H66.3136ZM68.3707 25.2145C68.3707 24.9965 68.3374 24.8149 68.2708 24.6696C68.2072 24.5242 68.1255 24.4092 68.0256 24.3244C67.9287 24.2366 67.8212 24.1761 67.7032 24.1428C67.5851 24.1064 67.4716 24.0883 67.3626 24.0883C67.2566 24.0883 67.1446 24.1064 67.0265 24.1428C66.9084 24.1761 66.7995 24.2366 66.6996 24.3244C66.6027 24.4092 66.5209 24.5242 66.4543 24.6696C66.3908 24.8149 66.359 24.9965 66.359 25.2145H68.3707Z" fill="#4E2D2D"/>
<path d="M73.1571 23.1937H74.4423V26.2453H74.4604L76.2633 23.1937H77.612V28.1435H76.3314V25.16H76.3087L74.5603 28.1435H73.1571V23.1937Z" fill="#4E2D2D"/>
<path d="M82.5028 24.2381H81.0042V23.1937H85.282V24.2381H83.7834V28.1435H82.5028V24.2381Z" fill="#4E2D2D"/>
<path d="M85.7861 25.6686C85.7861 25.2872 85.8436 24.936 85.9587 24.6151C86.0767 24.2941 86.2448 24.0187 86.4627 23.7886C86.6837 23.5555 86.9502 23.3738 87.262 23.2436C87.5738 23.1134 87.925 23.0484 88.3155 23.0484C88.7121 23.0484 89.0663 23.1134 89.3782 23.2436C89.693 23.3738 89.9579 23.5555 90.1729 23.7886C90.3909 24.0187 90.5574 24.2941 90.6724 24.6151C90.7874 24.936 90.845 25.2872 90.845 25.6686C90.845 26.0501 90.7874 26.4013 90.6724 26.7222C90.5574 27.0431 90.3909 27.3201 90.1729 27.5532C89.9579 27.7863 89.693 27.968 89.3782 28.0981C89.0663 28.2283 88.7121 28.2934 88.3155 28.2934C87.925 28.2934 87.5738 28.2283 87.262 28.0981C86.9502 27.968 86.6837 27.7863 86.4627 27.5532C86.2448 27.3201 86.0767 27.0431 85.9587 26.7222C85.8436 26.4013 85.7861 26.0501 85.7861 25.6686ZM87.1257 25.6686C87.1257 25.8563 87.1454 26.0425 87.1848 26.2272C87.2272 26.4088 87.2953 26.5723 87.3891 26.7176C87.483 26.8599 87.6056 26.975 87.757 27.0628C87.9083 27.1505 88.0945 27.1944 88.3155 27.1944C88.5456 27.1944 88.7364 27.1521 88.8877 27.0673C89.0421 26.9795 89.1647 26.866 89.2556 26.7267C89.3464 26.5844 89.41 26.4224 89.4463 26.2408C89.4856 26.0561 89.5053 25.8654 89.5053 25.6686C89.5053 25.4749 89.4856 25.2856 89.4463 25.101C89.41 24.9163 89.3464 24.7543 89.2556 24.6151C89.1647 24.4728 89.0421 24.3592 88.8877 24.2745C88.7364 24.1867 88.5456 24.1428 88.3155 24.1428C88.0945 24.1428 87.9083 24.1867 87.757 24.2745C87.6056 24.3623 87.483 24.4788 87.3891 24.6241C87.2953 24.7664 87.2272 24.9299 87.1848 25.1146C87.1454 25.2962 87.1257 25.4809 87.1257 25.6686Z" fill="#4E2D2D"/>
<path d="M93.0974 25.1373H94.0874C94.2327 25.1373 94.3538 25.1267 94.4507 25.1055C94.5475 25.0813 94.6232 25.048 94.6777 25.0056C94.7352 24.9602 94.7746 24.9057 94.7958 24.8421C94.82 24.7755 94.8321 24.6983 94.8321 24.6105C94.8321 24.5379 94.82 24.4713 94.7958 24.4107C94.7746 24.3471 94.7368 24.2941 94.6823 24.2518C94.6278 24.2064 94.5551 24.1715 94.4643 24.1473C94.3735 24.1201 94.2599 24.1064 94.1237 24.1064H93.0974V25.1373ZM91.8122 23.1937H94.3735C94.6005 23.1937 94.8185 23.2134 95.0274 23.2527C95.2393 23.2921 95.4255 23.3617 95.586 23.4616C95.7464 23.5585 95.8736 23.6917 95.9674 23.8612C96.0643 24.0277 96.1127 24.2397 96.1127 24.497C96.1127 24.6453 96.0961 24.774 96.0628 24.883C96.0325 24.992 95.9901 25.0858 95.9356 25.1645C95.8811 25.2402 95.8176 25.3053 95.7449 25.3598C95.6753 25.4113 95.6026 25.4552 95.5269 25.4915C95.7752 25.5793 95.9644 25.7201 96.0946 25.9138C96.2247 26.1046 96.2898 26.3331 96.2898 26.5996C96.2898 26.8327 96.249 27.0446 96.1672 27.2353C96.0885 27.423 95.975 27.585 95.8266 27.7212C95.6813 27.8544 95.5027 27.9589 95.2908 28.0346C95.0819 28.1072 94.8473 28.1435 94.5869 28.1435H91.8122V23.1937ZM93.0974 27.2308H94.0874C94.272 27.2308 94.4204 27.2111 94.5324 27.1717C94.6474 27.1324 94.7352 27.0824 94.7958 27.0219C94.8594 26.9613 94.9002 26.8947 94.9184 26.8221C94.9396 26.7494 94.9502 26.6813 94.9502 26.6177C94.9502 26.4966 94.9335 26.3967 94.9002 26.318C94.87 26.2363 94.82 26.1712 94.7504 26.1227C94.6838 26.0743 94.5945 26.041 94.4824 26.0228C94.3735 26.0047 94.2418 25.9956 94.0874 25.9956H93.0974V27.2308Z" fill="#4E2D2D"/>
<path d="M101.326 27.1672C101.326 27.3155 101.334 27.4382 101.349 27.535C101.367 27.6289 101.39 27.7046 101.417 27.7621C101.444 27.8166 101.474 27.8575 101.508 27.8847C101.544 27.9089 101.582 27.9271 101.621 27.9392V28.1435H100.2C100.176 28.086 100.148 28.0103 100.118 27.9165C100.091 27.8196 100.077 27.7031 100.077 27.5668C99.9773 27.6698 99.8789 27.7651 99.782 27.8529C99.6881 27.9407 99.5822 28.0179 99.4641 28.0845C99.346 28.1481 99.2098 28.198 99.0554 28.2344C98.901 28.2737 98.7148 28.2934 98.4968 28.2934C98.2758 28.2934 98.0715 28.2601 97.8838 28.1935C97.6991 28.1299 97.5387 28.0346 97.4024 27.9074C97.2662 27.7803 97.1602 27.6213 97.0845 27.4306C97.0089 27.2399 96.971 27.0189 96.971 26.7676C96.971 26.5647 97.0028 26.377 97.0664 26.2045C97.13 26.0289 97.2193 25.876 97.3343 25.7458C97.4524 25.6126 97.5947 25.5036 97.7612 25.4188C97.9307 25.331 98.1199 25.272 98.3288 25.2417L99.5867 25.0556C99.6321 25.0495 99.6806 25.0404 99.732 25.0283C99.7865 25.0162 99.8365 24.9965 99.8819 24.9693C99.9273 24.939 99.9652 24.8996 99.9954 24.8512C100.026 24.7997 100.041 24.7316 100.041 24.6468C100.041 24.5651 100.027 24.4909 100 24.4243C99.9758 24.3547 99.9334 24.2957 99.8728 24.2472C99.8123 24.1958 99.7305 24.1564 99.6276 24.1292C99.5277 24.1019 99.402 24.0883 99.2507 24.0883C99.0781 24.0883 98.9389 24.1064 98.8329 24.1428C98.73 24.1761 98.6482 24.2245 98.5877 24.2881C98.5271 24.3486 98.4832 24.4213 98.456 24.5061C98.4287 24.5878 98.409 24.6756 98.3969 24.7695H97.1118C97.1118 24.7089 97.1209 24.6257 97.139 24.5197C97.1602 24.4107 97.1966 24.2926 97.248 24.1655C97.3025 24.0383 97.3767 23.9097 97.4705 23.7795C97.5674 23.6493 97.6931 23.5312 97.8475 23.4253C98.0049 23.3163 98.1956 23.227 98.4196 23.1573C98.6437 23.0877 98.9116 23.0514 99.2234 23.0484C99.6654 23.0484 100.023 23.0938 100.295 23.1846C100.571 23.2724 100.784 23.3889 100.935 23.5343C101.09 23.6765 101.193 23.837 101.244 24.0156C101.299 24.1912 101.326 24.3668 101.326 24.5424V27.1672ZM100.041 25.7276C99.9621 25.77 99.8834 25.8094 99.8047 25.8457C99.726 25.879 99.6215 25.9078 99.4914 25.932L99.1508 25.9956C99.0024 26.0228 98.8722 26.0546 98.7602 26.0909C98.6482 26.1273 98.5544 26.1757 98.4787 26.2363C98.406 26.2938 98.35 26.3649 98.3107 26.4497C98.2743 26.5345 98.2562 26.6404 98.2562 26.7676C98.2562 26.8735 98.2728 26.9659 98.3061 27.0446C98.3394 27.1203 98.3848 27.1838 98.4423 27.2353C98.5029 27.2838 98.5725 27.3201 98.6512 27.3443C98.73 27.3685 98.8147 27.3806 98.9055 27.3806C98.954 27.3806 99.0161 27.3761 99.0917 27.367C99.1674 27.3549 99.2477 27.3337 99.3324 27.3034C99.4172 27.2732 99.502 27.2323 99.5867 27.1808C99.6715 27.1263 99.7472 27.0567 99.8138 26.9719C99.8804 26.8872 99.9349 26.7842 99.9773 26.6631C100.02 26.539 100.041 26.3937 100.041 26.2272V25.7276Z" fill="#4E2D2D"/>
<path d="M102.466 23.1937H103.692V23.9021H103.71C103.798 23.7537 103.89 23.6266 103.987 23.5206C104.084 23.4116 104.191 23.3223 104.31 23.2527C104.428 23.1831 104.558 23.1316 104.7 23.0983C104.845 23.065 105.009 23.0484 105.191 23.0484C105.342 23.0484 105.498 23.0665 105.658 23.1028C105.819 23.1392 105.975 23.1982 106.126 23.28C106.28 23.3587 106.426 23.4631 106.562 23.5933C106.698 23.7204 106.818 23.8779 106.921 24.0656C107.024 24.2533 107.105 24.4728 107.166 24.724C107.226 24.9723 107.257 25.2569 107.257 25.5778C107.257 25.9774 107.213 26.3437 107.125 26.6768C107.04 27.0098 106.91 27.2959 106.735 27.535C106.562 27.7742 106.342 27.9604 106.076 28.0936C105.813 28.2268 105.502 28.2934 105.145 28.2934C105.021 28.2934 104.895 28.2813 104.768 28.2571C104.641 28.2329 104.517 28.192 104.396 28.1345C104.275 28.0769 104.16 27.9997 104.051 27.9029C103.945 27.803 103.851 27.6788 103.769 27.5305H103.751V30.0599H102.466V23.1937ZM104.809 24.2018C104.603 24.2018 104.429 24.2457 104.287 24.3335C104.148 24.4213 104.034 24.5348 103.946 24.6741C103.861 24.8134 103.799 24.9708 103.76 25.1464C103.721 25.322 103.701 25.496 103.701 25.6686C103.701 25.7625 103.706 25.8654 103.715 25.9774C103.727 26.0864 103.748 26.1984 103.778 26.3135C103.809 26.4255 103.849 26.5345 103.901 26.6404C103.955 26.7464 104.023 26.8402 104.105 26.922C104.187 27.0037 104.285 27.0703 104.4 27.1218C104.515 27.1702 104.652 27.1944 104.809 27.1944C104.966 27.1944 105.103 27.1702 105.218 27.1218C105.333 27.0703 105.431 27.0037 105.513 26.922C105.595 26.8402 105.661 26.7464 105.713 26.6404C105.767 26.5345 105.81 26.4255 105.84 26.3135C105.87 26.1984 105.89 26.0864 105.899 25.9774C105.911 25.8654 105.917 25.7625 105.917 25.6686C105.917 25.496 105.897 25.322 105.858 25.1464C105.819 24.9708 105.755 24.8134 105.667 24.6741C105.583 24.5348 105.469 24.4213 105.327 24.3335C105.184 24.2457 105.012 24.2018 104.809 24.2018Z" fill="#4E2D2D"/>
<path d="M113.151 23.1937H114.436V28.1435H113.151V23.1937ZM108.188 23.1937H109.473V24.9148H110.64C110.946 24.9148 111.218 24.9466 111.457 25.0101C111.7 25.0737 111.904 25.1721 112.07 25.3053C112.237 25.4385 112.364 25.6081 112.452 25.8139C112.54 26.0168 112.584 26.2574 112.584 26.536C112.584 26.7873 112.547 27.0022 112.475 27.1808C112.402 27.3594 112.308 27.5093 112.193 27.6304C112.081 27.7485 111.955 27.8423 111.816 27.9119C111.677 27.9786 111.541 28.03 111.407 28.0663C111.274 28.0997 111.15 28.1208 111.035 28.1299C110.923 28.139 110.837 28.1435 110.776 28.1435H108.188V23.1937ZM109.473 27.1763H110.413C110.513 27.1763 110.611 27.1687 110.708 27.1536C110.808 27.1354 110.897 27.1036 110.976 27.0582C111.058 27.0098 111.123 26.9447 111.171 26.8629C111.22 26.7782 111.244 26.6692 111.244 26.536C111.244 26.4058 111.218 26.2983 111.167 26.2136C111.118 26.1288 111.05 26.0622 110.962 26.0137C110.878 25.9653 110.778 25.932 110.663 25.9138C110.551 25.8926 110.431 25.882 110.304 25.882H109.473V27.1763Z" fill="#4E2D2D"/>
<path d="M117.824 27.1036H118.337C118.458 26.8766 118.558 26.6389 118.637 26.3907C118.719 26.1394 118.784 25.8866 118.832 25.6323C118.881 25.378 118.915 25.1297 118.937 24.8875C118.958 24.6423 118.973 24.4122 118.982 24.1973C118.991 23.9823 118.994 23.7886 118.991 23.616C118.991 23.4434 118.993 23.3027 118.996 23.1937H122.865V27.1036H123.487V29.3333H122.279V28.1435H119.032V29.3333H117.824V27.1036ZM121.584 27.1036V24.2381H120.113C120.113 24.329 120.111 24.441 120.108 24.5742C120.108 24.7074 120.102 24.8557 120.09 25.0192C120.081 25.1797 120.066 25.3507 120.045 25.5324C120.027 25.714 119.998 25.8957 119.958 26.0773C119.922 26.259 119.877 26.4376 119.822 26.6132C119.771 26.7888 119.706 26.9522 119.627 27.1036H121.584Z" fill="#4E2D2D"/>
<path d="M128.918 28.1435H127.638V24.2381H126.121L126.094 25.16C126.078 25.6777 126.045 26.1318 125.994 26.5224C125.942 26.9129 125.857 27.2399 125.739 27.5032C125.624 27.7636 125.467 27.9604 125.267 28.0936C125.07 28.2268 124.817 28.2934 124.509 28.2934C124.363 28.2934 124.236 28.2843 124.127 28.2662C124.018 28.251 123.929 28.2283 123.859 28.198V27.1218C123.902 27.14 123.955 27.1566 124.018 27.1717C124.085 27.1869 124.165 27.1944 124.259 27.1944C124.356 27.1944 124.442 27.1657 124.518 27.1082C124.593 27.0476 124.659 26.9401 124.713 26.7857C124.768 26.6283 124.81 26.4118 124.84 26.1364C124.87 25.8609 124.89 25.5051 124.899 25.0692L124.936 23.1937H128.918V28.1435Z" fill="#4E2D2D"/>
<path d="M134.731 28.1435H133.441V26.3225H132.601C132.416 26.3225 132.257 26.3301 132.124 26.3452C131.994 26.3574 131.887 26.3891 131.802 26.4406C131.717 26.489 131.652 26.5617 131.607 26.6586C131.564 26.7555 131.54 26.8872 131.534 27.0537L131.516 27.5305C131.51 27.6001 131.501 27.6909 131.488 27.803C131.479 27.915 131.451 28.0285 131.402 28.1435H130.044C130.084 28.0769 130.116 28.0134 130.14 27.9528C130.164 27.8892 130.182 27.8287 130.194 27.7712C130.209 27.7106 130.22 27.6501 130.226 27.5895C130.235 27.529 130.243 27.4654 130.249 27.3988L130.312 26.8039C130.327 26.6707 130.346 26.5557 130.367 26.4588C130.388 26.3619 130.423 26.2786 130.471 26.209C130.52 26.1364 130.586 26.0743 130.671 26.0228C130.756 25.9714 130.869 25.9244 131.012 25.882C130.966 25.8699 130.915 25.8533 130.857 25.8321C130.803 25.8079 130.744 25.7776 130.68 25.7413C130.62 25.7019 130.558 25.6535 130.494 25.596C130.433 25.5354 130.376 25.4612 130.321 25.3734C130.282 25.3159 130.25 25.2554 130.226 25.1918C130.205 25.1252 130.188 25.0616 130.176 25.0011C130.164 24.9375 130.156 24.8784 130.153 24.824C130.15 24.7695 130.149 24.7225 130.149 24.6832C130.149 24.5076 130.17 24.3517 130.212 24.2154C130.255 24.0762 130.309 23.9551 130.376 23.8521C130.442 23.7492 130.518 23.6614 130.603 23.5888C130.688 23.5161 130.774 23.4571 130.862 23.4116C130.959 23.3572 131.066 23.3163 131.184 23.289C131.302 23.2588 131.417 23.2376 131.529 23.2255C131.641 23.2103 131.746 23.2012 131.843 23.1982C131.94 23.1952 132.015 23.1937 132.07 23.1937H134.731V28.1435ZM133.441 24.1609H132.406C132.297 24.1609 132.188 24.164 132.079 24.17C131.97 24.1761 131.871 24.2003 131.784 24.2427C131.699 24.282 131.629 24.3456 131.575 24.4334C131.523 24.5182 131.498 24.6393 131.498 24.7967C131.498 24.9511 131.523 25.0692 131.575 25.1509C131.629 25.2327 131.697 25.2932 131.779 25.3326C131.864 25.3719 131.958 25.3946 132.061 25.4007C132.164 25.4067 132.267 25.4098 132.369 25.4098H133.441V24.1609Z" fill="#4E2D2D"/>
<path d="M141.443 24.942C141.418 24.8118 141.385 24.6983 141.343 24.6014C141.3 24.5015 141.244 24.4183 141.175 24.3517C141.108 24.282 141.025 24.2306 140.925 24.1973C140.828 24.1609 140.71 24.1428 140.571 24.1428C140.356 24.1428 140.183 24.1927 140.053 24.2926C139.926 24.3925 139.828 24.5182 139.758 24.6696C139.688 24.8209 139.641 24.9859 139.617 25.1645C139.596 25.3432 139.585 25.5112 139.585 25.6686C139.585 25.8321 139.594 26.0047 139.613 26.1863C139.631 26.3649 139.673 26.5299 139.74 26.6813C139.806 26.8296 139.905 26.9522 140.035 27.0491C140.165 27.146 140.344 27.1944 140.571 27.1944C140.719 27.1944 140.848 27.1657 140.957 27.1082C141.066 27.0476 141.157 26.9734 141.229 26.8856C141.302 26.7978 141.355 26.704 141.388 26.6041C141.425 26.5042 141.443 26.4134 141.443 26.3316H142.782C142.782 26.4134 142.767 26.5193 142.737 26.6495C142.71 26.7797 142.663 26.9174 142.596 27.0628C142.53 27.2081 142.44 27.3549 142.328 27.5032C142.219 27.6486 142.081 27.7803 141.915 27.8983C141.752 28.0134 141.559 28.1072 141.338 28.1799C141.117 28.2556 140.861 28.2934 140.571 28.2934C140.192 28.2934 139.858 28.2359 139.567 28.1208C139.28 28.0058 139.037 27.8378 138.841 27.6168C138.647 27.3927 138.499 27.1172 138.396 26.7903C138.296 26.4633 138.246 26.0894 138.246 25.6686C138.246 25.2478 138.3 24.8754 138.409 24.5515C138.521 24.2245 138.679 23.9505 138.881 23.7295C139.084 23.5055 139.328 23.336 139.613 23.2209C139.9 23.1059 140.22 23.0484 140.571 23.0484C140.722 23.0484 140.878 23.0605 141.039 23.0847C141.202 23.1089 141.362 23.1513 141.52 23.2118C141.677 23.2694 141.827 23.345 141.969 23.4389C142.115 23.5327 142.243 23.6508 142.355 23.7931C142.471 23.9324 142.564 24.0974 142.637 24.2881C142.713 24.4758 142.761 24.6938 142.782 24.942H141.443Z" fill="#4E2D2D"/>
<path d="M148.681 23.1937H149.966V28.1435H148.681V23.1937ZM143.718 23.1937H145.003V24.9148H146.17C146.476 24.9148 146.748 24.9466 146.987 25.0101C147.23 25.0737 147.434 25.1721 147.601 25.3053C147.767 25.4385 147.894 25.6081 147.982 25.8139C148.07 26.0168 148.114 26.2574 148.114 26.536C148.114 26.7873 148.077 27.0022 148.005 27.1808C147.932 27.3594 147.838 27.5093 147.723 27.6304C147.611 27.7485 147.485 27.8423 147.346 27.9119C147.207 27.9786 147.071 28.03 146.938 28.0663C146.804 28.0997 146.68 28.1208 146.565 28.1299C146.453 28.139 146.367 28.1435 146.306 28.1435H143.718V23.1937ZM145.003 27.1763H145.943C146.043 27.1763 146.141 27.1687 146.238 27.1536C146.338 27.1354 146.427 27.1036 146.506 27.0582C146.588 27.0098 146.653 26.9447 146.701 26.8629C146.75 26.7782 146.774 26.6692 146.774 26.536C146.774 26.4058 146.748 26.2983 146.697 26.2136C146.648 26.1288 146.58 26.0622 146.492 26.0137C146.408 25.9653 146.308 25.932 146.193 25.9138C146.081 25.8926 145.961 25.882 145.834 25.882H145.003V27.1763Z" fill="#4E2D2D"/>
<path d="M151.156 23.1937H152.382V23.9021H152.401C152.488 23.7537 152.581 23.6266 152.678 23.5206C152.774 23.4116 152.882 23.3223 153 23.2527C153.118 23.1831 153.248 23.1316 153.391 23.0983C153.536 23.065 153.699 23.0484 153.881 23.0484C154.032 23.0484 154.188 23.0665 154.349 23.1028C154.509 23.1392 154.665 23.1982 154.816 23.28C154.971 23.3587 155.116 23.4631 155.252 23.5933C155.389 23.7204 155.508 23.8779 155.611 24.0656C155.714 24.2533 155.796 24.4728 155.856 24.724C155.917 24.9723 155.947 25.2569 155.947 25.5778C155.947 25.9774 155.903 26.3437 155.816 26.6768C155.731 27.0098 155.601 27.2959 155.425 27.535C155.252 27.7742 155.033 27.9604 154.767 28.0936C154.503 28.2268 154.193 28.2934 153.836 28.2934C153.711 28.2934 153.586 28.2813 153.459 28.2571C153.331 28.2329 153.207 28.192 153.086 28.1345C152.965 28.0769 152.85 27.9997 152.741 27.9029C152.635 27.803 152.541 27.6788 152.46 27.5305H152.441V30.0599H151.156V23.1937ZM153.5 24.2018C153.294 24.2018 153.12 24.2457 152.977 24.3335C152.838 24.4213 152.724 24.5348 152.637 24.6741C152.552 24.8134 152.49 24.9708 152.451 25.1464C152.411 25.322 152.391 25.496 152.391 25.6686C152.391 25.7625 152.396 25.8654 152.405 25.9774C152.417 26.0864 152.438 26.1984 152.469 26.3135C152.499 26.4255 152.54 26.5345 152.591 26.6404C152.646 26.7464 152.714 26.8402 152.796 26.922C152.877 27.0037 152.976 27.0703 153.091 27.1218C153.206 27.1702 153.342 27.1944 153.5 27.1944C153.657 27.1944 153.793 27.1702 153.908 27.1218C154.023 27.0703 154.122 27.0037 154.203 26.922C154.285 26.8402 154.352 26.7464 154.403 26.6404C154.458 26.5345 154.5 26.4255 154.53 26.3135C154.561 26.1984 154.58 26.0864 154.589 25.9774C154.602 25.8654 154.608 25.7625 154.608 25.6686C154.608 25.496 154.588 25.322 154.549 25.1464C154.509 24.9708 154.446 24.8134 154.358 24.6741C154.273 24.5348 154.16 24.4213 154.017 24.3335C153.875 24.2457 153.702 24.2018 153.5 24.2018Z" fill="#4E2D2D"/>
<path d="M156.583 25.6686C156.583 25.2872 156.64 24.936 156.756 24.6151C156.874 24.2941 157.042 24.0187 157.26 23.7886C157.481 23.5555 157.747 23.3738 158.059 23.2436C158.371 23.1134 158.722 23.0484 159.112 23.0484C159.509 23.0484 159.863 23.1134 160.175 23.2436C160.49 23.3738 160.755 23.5555 160.97 23.7886C161.188 24.0187 161.354 24.2941 161.469 24.6151C161.584 24.936 161.642 25.2872 161.642 25.6686C161.642 26.0501 161.584 26.4013 161.469 26.7222C161.354 27.0431 161.188 27.3201 160.97 27.5532C160.755 27.7863 160.49 27.968 160.175 28.0981C159.863 28.2283 159.509 28.2934 159.112 28.2934C158.722 28.2934 158.371 28.2283 158.059 28.0981C157.747 27.968 157.481 27.7863 157.26 27.5532C157.042 27.3201 156.874 27.0431 156.756 26.7222C156.64 26.4013 156.583 26.0501 156.583 25.6686ZM157.923 25.6686C157.923 25.8563 157.942 26.0425 157.982 26.2272C158.024 26.4088 158.092 26.5723 158.186 26.7176C158.28 26.8599 158.402 26.975 158.554 27.0628C158.705 27.1505 158.891 27.1944 159.112 27.1944C159.342 27.1944 159.533 27.1521 159.685 27.0673C159.839 26.9795 159.962 26.866 160.052 26.7267C160.143 26.5844 160.207 26.4224 160.243 26.2408C160.283 26.0561 160.302 25.8654 160.302 25.6686C160.302 25.4749 160.283 25.2856 160.243 25.101C160.207 24.9163 160.143 24.7543 160.052 24.6151C159.962 24.4728 159.839 24.3592 159.685 24.2745C159.533 24.1867 159.342 24.1428 159.112 24.1428C158.891 24.1428 158.705 24.1867 158.554 24.2745C158.402 24.3623 158.28 24.4788 158.186 24.6241C158.092 24.7664 158.024 24.9299 157.982 25.1146C157.942 25.2962 157.923 25.4809 157.923 25.6686Z" fill="#4E2D2D"/>
<path d="M162.146 27.1036H162.659C162.78 26.8766 162.88 26.6389 162.959 26.3907C163.041 26.1394 163.106 25.8866 163.154 25.6323C163.202 25.378 163.237 25.1297 163.258 24.8875C163.28 24.6423 163.295 24.4122 163.304 24.1973C163.313 23.9823 163.316 23.7886 163.313 23.616C163.313 23.4434 163.314 23.3027 163.318 23.1937H167.187V27.1036H167.809V29.3333H166.601V28.1435H163.354V29.3333H162.146V27.1036ZM165.906 27.1036V24.2381H164.435C164.435 24.329 164.433 24.441 164.43 24.5742C164.43 24.7074 164.424 24.8557 164.412 25.0192C164.403 25.1797 164.388 25.3507 164.367 25.5324C164.348 25.714 164.32 25.8957 164.28 26.0773C164.244 26.259 164.199 26.4376 164.144 26.6132C164.093 26.7888 164.027 26.9522 163.949 27.1036H165.906Z" fill="#4E2D2D"/>
<path d="M169.444 26.0682C169.444 26.1136 169.448 26.1742 169.457 26.2499C169.466 26.3256 169.484 26.4073 169.512 26.4951C169.539 26.5829 169.578 26.6722 169.63 26.763C169.681 26.8508 169.749 26.9311 169.834 27.0037C169.922 27.0764 170.028 27.1354 170.152 27.1808C170.279 27.2262 170.431 27.2489 170.606 27.2489C170.697 27.2489 170.786 27.2368 170.874 27.2126C170.965 27.1854 171.048 27.1475 171.124 27.0991C171.199 27.0476 171.265 26.9871 171.319 26.9174C171.377 26.8448 171.417 26.763 171.442 26.6722H172.772C172.772 26.763 172.753 26.8675 172.713 26.9856C172.674 27.1006 172.613 27.2187 172.532 27.3398C172.453 27.4578 172.353 27.5744 172.232 27.6894C172.111 27.8045 171.967 27.9074 171.8 27.9982C171.634 28.086 171.445 28.1572 171.233 28.2117C171.024 28.2662 170.791 28.2934 170.533 28.2934C170.203 28.2934 169.893 28.2435 169.603 28.1435C169.315 28.0467 169.062 27.8923 168.844 27.6803C168.629 27.4654 168.46 27.1884 168.336 26.8493C168.211 26.5102 168.149 26.0985 168.149 25.6141C168.149 25.2781 168.193 24.9556 168.281 24.6468C168.372 24.335 168.511 24.061 168.699 23.8249C168.89 23.5888 169.132 23.4011 169.425 23.2618C169.722 23.1195 170.078 23.0484 170.493 23.0484C170.932 23.0484 171.301 23.121 171.601 23.2663C171.9 23.4086 172.141 23.6115 172.323 23.8748C172.507 24.1382 172.639 24.4561 172.718 24.8285C172.796 25.2009 172.836 25.6141 172.836 26.0682H169.444ZM171.501 25.2145C171.501 24.9965 171.467 24.8149 171.401 24.6696C171.337 24.5242 171.255 24.4092 171.156 24.3244C171.059 24.2366 170.951 24.1761 170.833 24.1428C170.715 24.1064 170.602 24.0883 170.493 24.0883C170.387 24.0883 170.275 24.1064 170.157 24.1428C170.038 24.1761 169.929 24.2366 169.83 24.3244C169.733 24.4092 169.651 24.5242 169.584 24.6696C169.521 24.8149 169.489 24.9965 169.489 25.2145H171.501Z" fill="#4E2D2D"/>
<path d="M178.417 28.1435H177.136V24.2381H175.62L175.592 25.16C175.577 25.6777 175.544 26.1318 175.492 26.5224C175.441 26.9129 175.356 27.2399 175.238 27.5032C175.123 27.7636 174.966 27.9604 174.766 28.0936C174.569 28.2268 174.316 28.2934 174.007 28.2934C173.862 28.2934 173.735 28.2843 173.626 28.2662C173.517 28.251 173.428 28.2283 173.358 28.198V27.1218C173.4 27.14 173.453 27.1566 173.517 27.1717C173.584 27.1869 173.664 27.1944 173.758 27.1944C173.855 27.1944 173.941 27.1657 174.017 27.1082C174.092 27.0476 174.157 26.9401 174.212 26.7857C174.266 26.6283 174.309 26.4118 174.339 26.1364C174.369 25.8609 174.389 25.5051 174.398 25.0692L174.434 23.1937H178.417V28.1435Z" fill="#4E2D2D"/>
<path d="M179.766 23.1937H181.051V26.2453H181.069L182.872 23.1937H184.221V28.1435H182.94V25.16H182.917L181.169 28.1435H179.766V23.1937Z" fill="#4E2D2D"/>
<path d="M189.915 28.1435H188.625V26.3225H187.785C187.601 26.3225 187.442 26.3301 187.309 26.3452C187.178 26.3574 187.071 26.3891 186.986 26.4406C186.901 26.489 186.836 26.5617 186.791 26.6586C186.748 26.7555 186.724 26.8872 186.718 27.0537L186.7 27.5305C186.694 27.6001 186.685 27.6909 186.673 27.803C186.664 27.915 186.635 28.0285 186.587 28.1435H185.229C185.268 28.0769 185.3 28.0134 185.324 27.9528C185.348 27.8892 185.366 27.8287 185.379 27.7712C185.394 27.7106 185.404 27.6501 185.41 27.5895C185.419 27.529 185.427 27.4654 185.433 27.3988L185.497 26.8039C185.512 26.6707 185.53 26.5557 185.551 26.4588C185.572 26.3619 185.607 26.2786 185.656 26.209C185.704 26.1364 185.771 26.0743 185.855 26.0228C185.94 25.9714 186.054 25.9244 186.196 25.882C186.151 25.8699 186.099 25.8533 186.042 25.8321C185.987 25.8079 185.928 25.7776 185.864 25.7413C185.804 25.7019 185.742 25.6535 185.678 25.596C185.618 25.5354 185.56 25.4612 185.506 25.3734C185.466 25.3159 185.435 25.2554 185.41 25.1918C185.389 25.1252 185.372 25.0616 185.36 25.0011C185.348 24.9375 185.341 24.8784 185.338 24.824C185.335 24.7695 185.333 24.7225 185.333 24.6832C185.333 24.5076 185.354 24.3517 185.397 24.2154C185.439 24.0762 185.494 23.9551 185.56 23.8521C185.627 23.7492 185.702 23.6614 185.787 23.5888C185.872 23.5161 185.958 23.4571 186.046 23.4116C186.143 23.3572 186.25 23.3163 186.369 23.289C186.487 23.2588 186.602 23.2376 186.714 23.2255C186.826 23.2103 186.93 23.2012 187.027 23.1982C187.124 23.1952 187.2 23.1937 187.254 23.1937H189.915V28.1435ZM188.625 24.1609H187.59C187.481 24.1609 187.372 24.164 187.263 24.17C187.154 24.1761 187.056 24.2003 186.968 24.2427C186.883 24.282 186.814 24.3456 186.759 24.4334C186.708 24.5182 186.682 24.6393 186.682 24.7967C186.682 24.9511 186.708 25.0692 186.759 25.1509C186.814 25.2327 186.882 25.2932 186.963 25.3326C187.048 25.3719 187.142 25.3946 187.245 25.4007C187.348 25.4067 187.451 25.4098 187.554 25.4098H188.625V24.1609Z" fill="#4E2D2D"/>
</svg>
