<svg width="40" height="40" viewBox="0 0 40 40" fill="none" xmlns="http://www.w3.org/2000/svg">
<circle cx="20" cy="20" r="19.5" stroke="#8C3213"/>
<path d="M19.7998 13.8475C20.6918 12.9405 21.9049 12.4281 23.1904 12.4281C25.8149 12.4281 27.9498 14.5633 27.9498 17.1881C27.9495 18.5207 27.5189 19.8955 26.6799 21.2731C26.0161 22.3631 25.0949 23.4598 23.9445 24.5334C21.9942 26.3535 20.0162 27.5063 19.9924 27.5201L19.9924 27.5201C19.9328 27.5547 19.8662 27.5719 19.7998 27.5719C19.7349 27.5719 19.6699 27.5554 19.6114 27.5225M19.7998 13.8475L19.6824 27.3903M19.7998 13.8475C18.9078 12.9405 17.6947 12.4281 16.4092 12.4281C13.7847 12.4281 11.6498 14.563 11.6498 17.1875C11.6498 18.7345 12.2279 20.3316 13.3521 21.9329L13.3521 21.9329C13.4741 22.1067 13.7138 22.1486 13.8876 22.0266L19.7998 13.8475ZM19.6114 27.5225C19.61 27.5217 19.6087 27.521 19.6073 27.5202M19.6114 27.5225C19.6131 27.5234 19.6132 27.5234 19.6124 27.523C19.6116 27.5225 19.6095 27.5215 19.6073 27.5202M19.6114 27.5225C19.6105 27.5221 19.6091 27.5214 19.607 27.5204L19.5827 27.5087C19.5614 27.4984 19.531 27.4836 19.4922 27.464C19.4144 27.425 19.3032 27.3673 19.1636 27.2898C18.8846 27.1349 18.4926 26.9008 18.0296 26.5781C17.1037 25.9329 15.8929 24.9329 14.7339 23.5024M19.6073 27.5202C19.6073 27.5202 19.6073 27.5202 19.6073 27.5201L19.6824 27.3903M19.6073 27.5202L19.6824 27.3903M14.7339 23.5024L14.8504 23.4079M14.7339 23.5024C14.7339 23.5024 14.7339 23.5024 14.7339 23.5024L14.8504 23.4079M14.7339 23.5024C14.6002 23.3374 14.6256 23.0954 14.7905 22.9617L14.7905 22.9617C14.9554 22.8282 15.1975 22.8534 15.3312 23.0184L15.2146 23.1128L15.3312 23.0184C17.0837 25.1816 18.8215 26.178 19.618 26.6347C19.6851 26.6731 19.7455 26.7078 19.7987 26.739C20.332 26.4095 21.8889 25.4015 23.4266 23.9652C24.288 23.1606 25.2285 22.1382 25.9529 20.9785C26.6776 19.8183 27.1808 18.5292 27.1811 17.188L14.8504 23.4079M14.8504 23.4079C17.052 26.1253 19.4421 27.2746 19.6658 27.3822C19.6754 27.3868 19.6811 27.3896 19.6824 27.3903M20.0976 14.6659C20.8599 13.7321 21.9869 13.1969 23.1904 13.1969C25.3907 13.1969 27.181 14.9874 27.1811 17.188L20.0976 14.6659Z" fill="#8C3213" stroke="#8C3213" stroke-width="0.3"/>
</svg>
